<svg viewBox="0 0 128 128">
<path fill="#DCDDDE" stroke="#D9D9D9" stroke-width="0.5956" d="M126.9,78.1c-10.2-1.4-47.8-3.3-64.5-6 c-13.5-2.2-26.7-6.2-39.2-10.4c-3.3-1.1-9-3.3-12.7-5.3c-2.3-1.8-7.9-4.4-9.5-6.9C25.4,61,35.2,64.2,63.7,69.9 C75.3,72.3,117.5,75.7,126.9,78.1L126.9,78.1z"></path><path fill="#231F20" stroke="#231F20" stroke-width="0.5956" d="M126.9,75.4c-10.2-1.4-47.8-3.3-64.5-6 c-13.5-2.2-26.7-6.2-39.2-10.4c-3.3-1.1-9-3.3-12.7-5.3c-2.3-1.8-7.9-4.4-9.5-6.9c24.4,11.6,34.2,14.8,62.8,20.5 C75.4,69.6,117.6,73,126.9,75.4L126.9,75.4z"></path>
</svg>