<svg xmlns="http://www.w3.org/2000/svg" width="783.03" height="256.12" viewBox="0 0 783.03 256.12"><defs><style>.a{fill:#4d4d4d;}.b{fill:#27aae1;}</style></defs><title>compC</title><path class="a" d="M486.77,283.78q8.15,6.74,8.15,22.36V362H472.68v-50.5q0-6.55-1.74-10.05-3.18-6.4-12.1-6.4-11,0-15,9.37a32.4,32.4,0,0,0-2.12,12.65V362H420V279.17h21v12.11q4.17-6.4,7.89-9.22,6.67-5,16.92-5Q478.62,277,486.77,283.78Z" transform="translate(-275.97 -249.08)"/><path class="a" d="M569.22,280.7A33.76,33.76,0,0,1,583.56,293a40.8,40.8,0,0,1,6.62,17.17,106.14,106.14,0,0,1,.72,16.48H530.42q.5,12.49,8.68,17.52a22,22,0,0,0,12,3.12q7.42,0,12.05-3.81a18.23,18.23,0,0,0,4.47-5.71h22.16q-.88,7.39-8,15-11.16,12.11-31.24,12.11a45.26,45.26,0,0,1-29.25-10.22q-12.67-10.22-12.67-33.24,0-21.58,11.44-33.09t29.69-11.51A47.26,47.26,0,0,1,569.22,280.7Zm-32.48,18.75q-4.6,4.74-5.78,12.85h37.4q-.59-8.64-5.78-13.12a19,19,0,0,0-12.88-4.48Q541.34,294.71,536.74,299.45Z" transform="translate(-275.97 -249.08)"/><path class="a" d="M593.61,362l28.34-42-27.12-40.83h26.59l13.87,24.05,13.55-24.05h25.82l-27.27,40.45L675.72,362h-27l-14.29-25L620,362Z" transform="translate(-275.97 -249.08)"/><path class="a" d="M680.1,295.24V279.78h11.58V256.62h21.48v23.16h13.48v15.46H713.16v43.87q0,5.1,1.3,6.36t7.92,1.26q1,0,2.09,0t2.17-.12v16.22l-10.28.38q-15.39.53-21-5.33-3.66-3.73-3.66-11.5V295.24Z" transform="translate(-275.97 -249.08)"/><path class="b" d="M742.65,295.24V279.78h11.58V256.62h21.48v23.16H789.2v15.46H775.71v43.87q0,5.1,1.3,6.36t7.92,1.26q1,0,2.09,0t2.17-.12v16.22l-10.28.38q-15.39.53-21-5.33-3.66-3.73-3.66-11.5V295.24Z" transform="translate(-275.97 -249.08)"/><path class="b" d="M825.46,269.11h-22v-20h22Zm-22,9.9h22v83h-22Z" transform="translate(-275.97 -249.08)"/><path class="b" d="M950.08,279.32a24.14,24.14,0,0,1,9.67,7.47,23.85,23.85,0,0,1,4.72,10.66,73.84,73.84,0,0,1,.76,12.26L965.08,362H942.84V309.18a17.35,17.35,0,0,0-1.52-7.77q-2.9-5.79-10.66-5.79-9,0-12.42,7.47a23.43,23.43,0,0,0-1.75,9.52V362H894.62V312.61q0-7.38-1.52-10.74-2.74-6-10.74-6-9.29,0-12.49,6-1.75,3.43-1.75,10.21v50h-22V279.17h21.1v12.11q4-6.47,7.62-9.22,6.32-4.87,16.38-4.87,9.52,0,15.39,4.19a24.37,24.37,0,0,1,7.16,10,27.59,27.59,0,0,1,10.59-10.74,32.32,32.32,0,0,1,14.93-3.43A28.9,28.9,0,0,1,950.08,279.32Z" transform="translate(-275.97 -249.08)"/><path class="b" d="M1037.3,280.7A33.77,33.77,0,0,1,1051.65,293a40.84,40.84,0,0,1,6.62,17.17,106.29,106.29,0,0,1,.71,16.48H998.5q.5,12.49,8.68,17.52a22,22,0,0,0,12,3.12q7.42,0,12.05-3.81a18.23,18.23,0,0,0,4.47-5.71h22.16q-.88,7.39-8,15-11.16,12.11-31.24,12.11a45.26,45.26,0,0,1-29.25-10.22q-12.67-10.22-12.67-33.24,0-21.58,11.44-33.09t29.69-11.51A47.27,47.27,0,0,1,1037.3,280.7Zm-32.48,18.75q-4.6,4.74-5.78,12.85h37.4q-.59-8.64-5.78-13.12a19,19,0,0,0-12.88-4.48Q1009.42,294.71,1004.82,299.45Z" transform="translate(-275.97 -249.08)"/><path class="a" d="M452.7,422a34.33,34.33,0,0,0,8.67-1.9q4.68-2,4.68-6.17,0-5.1-3.59-7T451.92,405q-7.8,0-11,3.81a15.69,15.69,0,0,0-3.09,7.62H416.85q.69-10.89,6.12-17.9,8.64-11,29.68-11A52.92,52.92,0,0,1,477,392.92q10.63,5.41,10.63,20.41v38.09q0,4,.15,9.6.23,4.27,1.29,5.79a7.78,7.78,0,0,0,3.2,2.51v3.2H468.64a24.19,24.19,0,0,1-1.37-4.72q-.38-2.21-.61-5a44.8,44.8,0,0,1-10.42,8.3,31.49,31.49,0,0,1-15.94,4q-11.34,0-18.73-6.43t-7.39-18.24q0-15.31,11.89-22.17,6.52-3.73,19.18-5.33ZM466,432.15a24.05,24.05,0,0,1-4.21,2.1,35.5,35.5,0,0,1-5.83,1.48l-4.94.92q-6.95,1.22-10,3a9.91,9.91,0,0,0-5.13,9.22q0,5.56,3.13,8a11.89,11.89,0,0,0,7.62,2.48,22.69,22.69,0,0,0,13.11-4.11q6-4.11,6.23-15Z" transform="translate(-275.97 -249.08)"/><path class="a" d="M572.5,398.4q10.16,10.74,10.16,31.54,0,21.94-9.93,33.44t-25.57,11.5q-10,0-16.56-5a32,32,0,0,1-7.05-8V505.2H502.07V389.49h20.8v12.26a34.94,34.94,0,0,1,7.51-8.53,27.73,27.73,0,0,1,17.33-5.56A32.84,32.84,0,0,1,572.5,398.4ZM555.84,414q-4.43-7.39-14.35-7.39-11.93,0-16.39,11.2-2.31,5.94-2.31,15.08,0,14.47,7.77,20.34a17.82,17.82,0,0,0,10.93,3.43q9.16,0,14-7T560.27,431A32.42,32.42,0,0,0,555.84,414Z" transform="translate(-275.97 -249.08)"/><path class="a" d="M663.9,398.4q10.16,10.74,10.16,31.54,0,21.94-9.93,33.44t-25.57,11.5q-10,0-16.56-5a32,32,0,0,1-7.05-8V505.2H593.46V389.49h20.8v12.26a34.94,34.94,0,0,1,7.51-8.53,27.73,27.73,0,0,1,17.33-5.56A32.84,32.84,0,0,1,663.9,398.4ZM647.24,414q-4.43-7.39-14.35-7.39-11.93,0-16.39,11.2-2.31,5.94-2.31,15.08,0,14.47,7.77,20.34a17.82,17.82,0,0,0,10.93,3.43q9.16,0,14-7T651.66,431A32.42,32.42,0,0,0,647.24,414Z" transform="translate(-275.97 -249.08)"/><path class="a" d="M703.2,446q.69,5.79,3,8.23,4.06,4.34,15,4.34,6.43,0,10.22-1.9a6.38,6.38,0,0,0,.74-11.28q-3.05-1.9-22.71-6.55-14.15-3.5-19.94-8.76t-5.79-14.93q0-11.5,9-19.76t25.46-8.27q15.57,0,25.38,6.21t11.26,21.44H733.14a12.83,12.83,0,0,0-2.37-6.63q-3.59-4.42-12.22-4.42-7.1,0-10.12,2.21t-3,5.18a5.67,5.67,0,0,0,3.21,5.41q3.21,1.75,22.67,6,13,3,19.45,9.22a20.92,20.92,0,0,1,6.4,15.61,25.21,25.21,0,0,1-9.2,20.15q-9.2,7.81-28.43,7.81-19.62,0-29-8.27A26.86,26.86,0,0,1,681.19,446Z" transform="translate(-275.97 -249.08)"/><path class="b" d="M401.37,373.33l-63.95,98.9H276l66.07-98L278.81,279h62l60.54,94.27m0,0" transform="translate(-275.97 -249.08)"/></svg>