<svg xmlns="http://www.w3.org/2000/svg" width="1.79in" height="0.86in" viewBox="0 0 129.11 62.02"><defs><style>.a{fill:#006db6;}.b{fill:#5c5c60;}.c{fill:#fff;}</style></defs><title>EtixLogo</title><path class="a" d="M333.11,353.48a8,8,0,1,1-8-8,8,8,0,0,1,8,8" transform="translate(-242.01 -345.52)"/><path class="b" d="M306.31,357.8a5.49,5.49,0,1,1-5.45-4.88,5.19,5.19,0,0,1,5.45,4.88" transform="translate(-242.01 -345.52)"/><path class="b" d="M298.06,368.47a4.76,4.76,0,1,1-4.74-5.12,4.94,4.94,0,0,1,4.74,5.12" transform="translate(-242.01 -345.52)"/><path class="b" d="M315.89,368.47c0,2.83-2,5.12-4.45,5.12S307,371.3,307,368.47s2-5.12,4.45-5.12,4.45,2.29,4.45,5.12" transform="translate(-242.01 -345.52)"/><path class="b" d="M318.06,398.11a5,5,0,1,1-5-5.25,5.11,5.11,0,0,1,5,5.25" transform="translate(-242.01 -345.52)"/><path class="b" d="M310.45,393.67s6.44,7.3,5.63,8.63-20.29,8-20.34-11.82V373.59h-2.68V363.36h2.35V357.8h10.91v5.56h4.89l.24,10.23h-5.13l-.06,18.13s-.07,3.91,4.2,2" transform="translate(-242.01 -345.52)"/><path class="b" d="M330.55,367.4c0,2.37-2.42,4.29-5.41,4.29s-5.41-1.92-5.41-4.29,2.42-4.29,5.41-4.29,5.41,1.92,5.41,4.29" transform="translate(-242.01 -345.52)"/><path class="b" d="M330.47,400.15c0,2.37-2.42,4.29-5.41,4.29s-5.41-1.92-5.41-4.29,2.42-4.29,5.41-4.29,5.41,1.92,5.41,4.29" transform="translate(-242.01 -345.52)"/><polygon class="b" points="77.66 54.16 77.72 21.98 88.54 21.98 88.47 54.03 77.66 54.16"/><path class="b" d="M342.17,364.36a5.36,5.36,0,1,1-7.3-.25,5.17,5.17,0,0,1,7.3.25" transform="translate(-242.01 -345.52)"/><path class="b" d="M370,395.82a5.36,5.36,0,1,1-7.3-.26,5.17,5.17,0,0,1,7.3.26" transform="translate(-242.01 -345.52)"/><path class="b" d="M370,370.95a5.36,5.36,0,1,1-1.49-7.15,5.17,5.17,0,0,1,1.49,7.15" transform="translate(-242.01 -345.52)"/><path class="b" d="M342.08,402.41a5.36,5.36,0,0,1-8.73-6.16,3.48,3.48,0,0,1,.3-.39,5.37,5.37,0,0,1,8.43,6.55" transform="translate(-242.01 -345.52)"/><polygon class="b" points="102.25 38.07 92.23 25.99 100.63 19.48 109.41 30.4 119.27 19.27 127.35 26.18 116.71 38.07 127.95 50.3 119.89 57.31 109.74 45.43 100.07 56.89 91.34 50.73 102.25 38.07"/><path class="a" d="M288.75,363.06a7.08,7.08,0,0,0-2.08,7.66,7.43,7.43,0,0,0,6.64,5.42v15.92l-.21.42a28.07,28.07,0,0,1-6.94,8.83,26.94,26.94,0,0,1-34.74-41.17,26.27,26.27,0,0,1,37.34,2.92" transform="translate(-242.01 -345.52)"/><path class="c" d="M288,380.62a19.58,19.58,0,1,1-19.58-19.33,20.09,20.09,0,0,1,3.33.28l.71.14s6.75,1.76,9.85,6.24a4.78,4.78,0,0,1-.71,6.22l-16.79,16.72s11.6,4.56,14.87-10.09a4.28,4.28,0,0,1,4.15-3.59,4.08,4.08,0,0,1,4.17,4.07" transform="translate(-242.01 -345.52)"/><path class="a" d="M273.41,371.13c-2.24-2.23-9-2-13.07,2.06s-3.67,10.23-1.42,12.46Z" transform="translate(-242.01 -345.52)"/></svg>