<svg xmlns="http://www.w3.org/2000/svg" width="1.22in" height="1.22in" viewBox="0 0 87.76 87.76"><defs><style>.a{fill:#7d7770;}.b{fill:#77b1b9;}</style></defs><title>it-logo</title><path class="a" d="M398.72,367.83a5.79,5.79,0,0,1-8.19-8.19l12.57-12.57a5.79,5.79,0,1,1,8.19,8.19l-12.57,12.57Z" transform="translate(-336.16 -334)"/><path class="a" d="M386.15,357.56a5.79,5.79,0,1,1-11.58,0V339.79a5.79,5.79,0,1,1,11.58,0v17.77Z" transform="translate(-336.16 -334)"/><path class="a" d="M370,359.19a5.79,5.79,0,0,1-8.19,8.19l-12.57-12.57a5.79,5.79,0,0,1,8.19-8.19L370,359.19Z" transform="translate(-336.16 -334)"/><path class="a" d="M359.72,371.77a5.79,5.79,0,0,1,0,11.58H341.95a5.79,5.79,0,0,1,0-11.58Z" transform="translate(-336.16 -334)"/><path class="a" d="M361.35,387.93a5.79,5.79,0,0,1,8.19,8.19L357,408.68a5.79,5.79,0,0,1-8.19-8.19l12.57-12.57Z" transform="translate(-336.16 -334)"/><path class="a" d="M373.93,398.2a5.79,5.79,0,1,1,11.58,0V416a5.79,5.79,0,1,1-11.58,0V398.2Z" transform="translate(-336.16 -334)"/><path class="b" d="M418.13,372.41H380.47a6.15,6.15,0,0,0-4.2,10.34l26.38,26.38a5.79,5.79,0,0,0,8.19-8.19l-17-17h24.25a5.79,5.79,0,1,0,0-11.58Z" transform="translate(-336.16 -334)"/></svg>